<svg width="25" height="30" viewBox="0 0 25 30" fill="none" xmlns="http://www.w3.org/2000/svg">
<path d="M9.6768 6.9399C9.89584 6.81417 10.1775 6.78274 10.4278 6.78274H17.5309C18.3445 6.78274 19.158 6.8456 19.9716 6.97133C20.1906 7.00276 20.3784 7.0342 20.5974 7.09706C20.8165 7.12849 21.0042 7.19136 21.192 7.25422L21.4736 7.34851C21.5675 7.37995 21.6613 7.41138 21.7552 7.44281C21.9117 5.52545 21.3484 4.17386 20.4097 3.1366C19.0329 1.62785 16.6234 0.967773 13.4943 0.967773H5.0457C4.41988 0.967773 3.85664 1.43926 3.76277 2.03647L0.00782283 25.7992C-0.0234684 26.0193 0.0391135 26.2393 0.19557 26.4279C0.352025 26.6165 0.571064 26.7108 0.790103 26.6793H5.7654L8.70677 8.26005C8.80065 7.66284 9.14485 7.15992 9.6768 6.9399Z" fill="#1B5067"/>
<path d="M21.0539 8.49029L20.806 8.42785C20.6511 8.36542 20.4652 8.3342 20.2793 8.30298C20.0934 8.27176 19.9075 8.24054 19.7216 8.20933C18.9779 8.08446 18.2343 8.05324 17.4906 8.05324H10.9528C10.7979 8.05324 10.612 8.08446 10.4571 8.14689C10.1162 8.30298 9.89932 8.61516 9.83735 8.98977L8.65992 16.4508C8.78386 16.4196 8.93879 16.4196 9.06273 16.4196H11.6965C12.9668 16.4508 14.2062 16.2635 15.4456 15.9513C18.2343 15.1397 20.0934 13.3602 21.0539 10.4882C21.2398 9.89508 21.3947 9.30195 21.5187 8.70881C21.3947 8.61516 21.2088 8.55272 21.0539 8.49029Z" fill="#1B5067"/>
<path d="M23.546 9.76341C23.2949 9.51174 23.0439 9.29153 22.73 9.10277C22.0083 12.6262 19.7802 17.5967 11.5582 17.5967H9.5184C8.89077 17.5967 8.3259 18.0686 8.23176 18.6663C8.23176 18.6663 6.6313 28.5759 6.56854 29.0792C6.53715 29.268 6.59992 29.4567 6.72544 29.614C6.85097 29.7713 7.03926 29.8342 7.22755 29.8342H11.3385C11.9034 29.8342 12.3741 29.4253 12.4683 28.8905L13.4725 22.756C13.5666 22.2212 14.0373 21.8122 14.6022 21.8122H15.2926C19.8743 21.8122 23.4518 19.9561 24.5188 14.6396C24.5502 14.4823 24.5816 14.325 24.6129 14.1677C24.8012 12.343 24.5188 10.8645 23.546 9.76341Z" fill="#1B5067"/>
</svg>
