<svg width="69" height="24" viewBox="0 0 69 24" fill="none" xmlns="http://www.w3.org/2000/svg">
<path d="M44.7826 0.827148C39.9008 0.827148 35.5381 3.3608 35.5381 8.0419C35.5381 13.4102 43.2755 13.781 43.2755 16.4779C43.2755 17.6135 41.9758 18.63 39.756 18.63C36.6058 18.63 34.2512 17.2096 34.2512 17.2096L33.2438 21.9334C33.2438 21.9334 35.9561 23.1332 39.5572 23.1332C44.8947 23.1332 49.0946 20.4751 49.0946 15.714C49.0946 10.0413 41.325 9.68157 41.325 7.17839C41.325 6.28885 42.3919 5.31418 44.6053 5.31418C47.1027 5.31418 49.1403 6.34716 49.1403 6.34716L50.1263 1.78481C50.1263 1.78481 47.9092 0.827148 44.7826 0.827148ZM0.11821 1.17148L0 1.86013C0 1.86013 2.05381 2.2365 3.9036 2.98727C6.28536 3.84818 6.45503 4.34936 6.85616 5.90599L11.2272 22.7781H17.0867L26.1136 1.17148H20.2676L14.4672 15.8619L12.1004 3.40961C11.8833 1.98445 10.7838 1.17148 9.43796 1.17148H0.11821ZM28.4643 1.17148L23.8783 22.7781H29.453L34.0229 1.17148H28.4643ZM59.5562 1.17148C58.2119 1.17148 57.4997 1.8921 56.977 3.15136L48.8098 22.7781H54.6558L55.7869 19.507H62.909L63.5968 22.7781H68.755L64.255 1.17148H59.5562ZM60.3165 7.00892L62.0493 15.1168H57.4069L60.3165 7.00892Z" fill="#1B5067"/>
</svg>
