<svg width="50" height="31" viewBox="0 0 50 31" fill="none" xmlns="http://www.w3.org/2000/svg">
<path d="M23.1932 27.6877C23.3118 27.7874 23.4386 27.8871 23.5633 27.9848C21.1567 29.5781 18.2675 30.5039 15.1657 30.5039C6.78846 30.506 0 23.7503 0 15.4156C0 7.0829 6.78846 0.325195 15.1636 0.325195C18.2675 0.325195 21.1567 1.25308 23.5572 2.84433C23.4345 2.9481 23.3118 3.04374 23.2198 3.14955C19.6293 6.23641 17.5744 10.711 17.5744 15.4156C17.5744 20.1181 19.6211 24.5927 23.1932 27.6877ZM33.9096 0.325195C30.8016 0.325195 27.9165 1.25308 25.516 2.84433C25.6387 2.9481 25.7614 3.04374 25.8534 3.14955C29.4439 6.23641 31.4989 10.711 31.4989 15.4156C31.4989 20.1161 29.4521 24.5866 25.88 27.6877C25.7614 27.7874 25.6346 27.8871 25.5099 27.9848C27.9165 29.5781 30.8016 30.5039 33.9076 30.5039C42.2848 30.506 49.0732 23.7503 49.0732 15.4156C49.0732 7.08494 42.2848 0.325195 33.9096 0.325195ZM24.5366 3.56059C24.3403 3.7132 24.1502 3.86582 23.9641 4.03064C20.7662 6.79599 18.748 10.8677 18.748 15.4156C18.748 19.9655 20.7662 24.0352 23.9641 26.8005C24.1481 26.9633 24.3424 27.122 24.5366 27.2726C24.7329 27.122 24.9231 26.9633 25.1091 26.8005C28.305 24.0352 30.3252 19.9655 30.3252 15.4156C30.3252 10.8677 28.3071 6.79599 25.1091 4.03064C24.9251 3.86785 24.7329 3.7132 24.5366 3.56059Z" fill="#1B5067"/>
</svg>
