<svg width="72" height="18" viewBox="0 0 72 18" fill="none" xmlns="http://www.w3.org/2000/svg">
<path d="M8.02473 0.78418L0 17.9485H9.60673L10.7977 15.2118H13.5199L14.7109 17.9485H25.2852V15.8598L26.2274 17.9485H31.6973L32.6395 15.8156V17.9485H54.6312L57.3053 15.2829L59.8092 17.9485L71.1046 17.9706L63.0545 9.41427L71.1046 0.78418H59.9844L57.3814 3.40056L54.9563 0.78418H31.0322L28.9778 5.21445L26.8753 0.78418H17.2886V2.80185L16.2221 0.78418H8.02473ZM9.88358 3.22154H14.5663L19.8891 14.8608V3.22154H25.0189L29.1302 11.5668L32.9192 3.22154H38.0233V15.5381H34.9176L34.8922 5.88691L30.3643 15.5381H27.5861L23.0328 5.88691V15.5381H16.6435L15.4323 12.7769H8.88815L7.67937 15.5357H4.25607L9.88358 3.22154ZM40.8648 3.22154H53.4935L57.356 7.25419L61.343 3.22154H65.2056L59.3368 9.41185L65.2056 15.5308H61.1678L57.3053 11.4513L53.298 15.5308H40.8648V3.22154ZM12.1616 5.30543L10.0056 10.2243H14.3151L12.1616 5.30543ZM43.9834 5.77169V8.02007H50.8729V10.5261H43.9834V12.9807H51.711L55.3016 9.36528L51.8633 5.76954H43.9834V5.77169Z" fill="#1B5067"/>
</svg>
