<svg width="24" height="24" viewBox="0 0 24 24" fill="none" xmlns="http://www.w3.org/2000/svg">
<path d="M15 7H19.323C19.732 7 20.1 7.249 20.251 7.629L21.857 11.643C21.951 11.879 22 12.131 22 12.385V18.333C22 18.885 21.552 19.333 21 19.333H19.169" stroke="#051122" stroke-width="1.5" stroke-linecap="round" stroke-linejoin="round"></path>
<path d="M15.9999 19.42H8.16992" stroke="#051122" stroke-width="1.5" stroke-linecap="round" stroke-linejoin="round"></path>
<path d="M22 14H18V10H21.2" stroke="#051122" stroke-width="1.5" stroke-linecap="round" stroke-linejoin="round"></path>
<path d="M12.556 5H14C14.552 5 15 5.448 15 6V15H2" stroke="#051122" stroke-width="1.5" stroke-linecap="round" stroke-linejoin="round"></path>
<path d="M18.704 18.296C19.323 18.915 19.323 19.918 18.704 20.536C18.085 21.155 17.082 21.155 16.464 20.536C15.845 19.917 15.845 18.914 16.464 18.296C17.083 17.678 18.086 17.678 18.704 18.296" stroke="#051122" stroke-width="1.5" stroke-linecap="round" stroke-linejoin="round"></path>
<path d="M7.70412 18.296C8.32312 18.915 8.32312 19.918 7.70412 20.536C7.08512 21.155 6.08212 21.155 5.46412 20.536C4.84612 19.917 4.84512 18.914 5.46412 18.296C6.08312 17.678 7.08512 17.678 7.70412 18.296" stroke="#051122" stroke-width="1.5" stroke-linecap="round" stroke-linejoin="round"></path>
<path d="M5 19.416H3C2.448 19.416 2 18.968 2 18.416V6C2 5.448 2.448 5 3 5H13.499" stroke="#051122" stroke-width="1.5" stroke-linecap="round" stroke-linejoin="round"></path>
<path d="M10.9109 9.20204C10.9109 9.20204 10.9437 10.6877 9.56975 10.4796C9.01672 10.3967 8.51379 9.30609 9.63719 8.3696L8.39817 7.19995L7.16108 8.37153C8.28641 9.30802 7.78155 10.3987 7.22852 10.4815C5.85461 10.6896 5.8893 9.20397 5.8893 9.20397L3.6001 8.15764C5.05879 8.96695 5.29773 12.3179 5.29773 12.3179C5.86232 12 6.50014 11.8323 7.14759 11.8304C8.73346 11.7957 10.1575 12.1657 11.0959 12.1213C11.2423 12.1136 11.5217 12.0809 11.5217 12.0809C11.5217 12.0809 11.7433 8.96888 13.2001 8.15764L10.9109 9.20204Z" fill="#051122"></path>
</svg>