<svg width="24" height="24" viewBox="0 0 24 24" fill="none" xmlns="http://www.w3.org/2000/svg">
<path d="M16.2928 16.0244V23L12.0001 20.7463L7.70739 23V16.0244M6.06441 15.3344C5.32144 14.5914 5.81406 13.0328 5.4345 12.1202C5.05494 11.2077 3.60132 10.4082 3.60132 9.39873C3.60132 8.38927 5.03879 7.62207 5.4345 6.67722C5.83021 5.73236 5.32144 4.20605 6.06441 3.46309C6.80737 2.72012 8.36598 3.21274 9.27854 2.83318C10.1911 2.45363 10.9906 1 12 1C13.0095 1 13.7767 2.43747 14.7216 2.83318C15.6664 3.22889 17.1927 2.72012 17.9357 3.46309C18.6786 4.20605 18.186 5.76466 18.5656 6.67722C18.9451 7.58977 20.3988 8.38927 20.3988 9.39873C20.3988 10.4082 18.9613 11.1754 18.5656 12.1202C18.1699 13.0651 18.6786 14.5914 17.9357 15.3344C17.1927 16.0773 15.6341 15.5847 14.7216 15.9643C13.809 16.3438 13.0095 17.7975 12 17.7975C10.9906 17.7975 10.2234 16.36 9.27854 15.9643C8.33368 15.5686 6.80737 16.0773 6.06441 15.3344ZM16.6659 9.39873C16.6659 11.9757 14.5769 14.0647 11.9999 14.0647C9.42299 14.0647 7.33397 11.9757 7.33397 9.39873C7.33397 6.8218 9.42299 4.73277 11.9999 4.73277C14.5769 4.73277 16.6659 6.8218 16.6659 9.39873Z" stroke="#051122" stroke-width="1.5" stroke-linecap="round" stroke-linejoin="round"></path>
</svg>